<svg width="272" height="272" viewBox="0 0 272 272" fill="none" xmlns="http://www.w3.org/2000/svg">
<path d="M158.398 79.723L79.3642 125.787C76.677 127.338 75.7559 130.776 77.3067 133.465L109.476 189.185C111.028 191.872 114.465 192.793 117.155 191.242L194.416 145.251L208.385 93.1169L158.398 79.723ZM178.858 117.424C174.115 116.153 171.3 111.277 172.571 106.534C173.842 101.791 178.718 98.9758 183.461 100.247C188.204 101.518 191.019 106.394 189.748 111.137C188.477 115.88 183.601 118.695 178.858 117.424Z" fill="#F12E03"/>
<path d="M185.369 93.9191C176.976 91.6701 168.347 96.6519 166.098 105.045C163.849 113.439 168.831 122.067 177.224 124.316C185.618 126.566 194.246 121.584 196.495 113.19C198.744 104.797 193.763 96.1682 185.369 93.9191ZM179.26 116.717C175.064 115.593 172.573 111.278 173.697 107.082C174.822 102.885 179.136 100.394 183.333 101.518C187.53 102.643 190.02 106.957 188.896 111.154C187.771 115.351 183.457 117.842 179.26 116.717Z" fill="#444343"/>
<path d="M114.523 139.144C114.883 139.767 115.108 140.457 115.199 141.213C115.279 141.952 115.276 142.727 115.19 143.539C115.112 144.323 114.968 145.134 114.758 145.971C114.539 146.79 114.314 147.601 114.085 148.404C113.957 148.823 113.826 149.315 113.689 149.879C113.553 150.443 113.434 150.996 113.332 151.54C113.23 152.084 113.167 152.594 113.142 153.07C113.106 153.529 113.145 153.877 113.258 154.112L121.26 149.492L122.79 152.142L111.332 158.757C111.235 158.628 111.131 158.469 111.021 158.278C110.901 158.07 110.811 157.914 110.751 157.811C110.271 156.979 109.961 156.142 109.821 155.299C109.688 154.429 109.663 153.566 109.746 152.71C109.829 151.853 109.984 151.002 110.211 150.155C110.438 149.308 110.67 148.47 110.907 147.64C111.093 147.002 111.266 146.382 111.427 145.781C111.588 145.18 111.702 144.618 111.769 144.094C111.844 143.543 111.858 143.027 111.811 142.546C111.754 142.047 111.606 141.59 111.366 141.175C110.846 140.274 110.216 139.783 109.476 139.702C108.737 139.621 107.994 139.795 107.25 140.225C106.765 140.505 106.354 140.835 106.019 141.213C105.683 141.592 105.406 141.971 105.187 142.352C104.985 142.722 104.823 143.082 104.7 143.429C104.568 143.76 104.476 144.021 104.425 144.212L101.591 142.904C101.918 141.791 102.447 140.747 103.177 139.771C103.914 138.768 104.846 137.941 105.971 137.291C107.894 136.181 109.571 135.825 111.001 136.223C112.439 136.594 113.613 137.568 114.523 139.144ZM125.084 131.973C124.958 132.715 124.835 133.502 124.714 134.334C124.611 135.155 124.532 135.998 124.476 136.861C124.421 137.725 124.392 138.596 124.391 139.474C124.38 140.335 124.404 141.176 124.462 141.997L129.269 139.222L125.084 131.973ZM125.914 126.332L132.334 137.452L134.361 136.282L135.846 138.854L133.819 140.024L136.309 144.336L133.244 146.106L130.754 141.794L122.855 146.354L121.565 144.119C121.472 143.157 121.426 142.017 121.427 140.7C121.446 139.373 121.511 137.985 121.621 136.535C121.731 135.086 121.894 133.629 122.111 132.165C122.328 130.7 122.6 129.331 122.926 128.057L125.914 126.332ZM141.42 123.407C142.33 124.983 142.623 126.431 142.299 127.749C141.992 129.058 141.189 130.087 139.89 130.837C139.249 131.207 138.601 131.443 137.944 131.546C137.277 131.63 136.633 131.575 136.012 131.379C135.391 131.184 134.792 130.848 134.217 130.371C133.649 129.868 133.14 129.226 132.69 128.447C131.77 126.854 131.469 125.411 131.786 124.12C132.11 122.801 132.921 121.767 134.22 121.017C135.519 120.267 136.812 120.086 138.099 120.475C139.393 120.836 140.5 121.814 141.42 123.407ZM138.952 124.832C138.422 123.914 137.854 123.33 137.247 123.08C136.648 122.802 136.054 122.833 135.465 123.173C134.876 123.513 134.552 124.012 134.493 124.67C134.424 125.31 134.655 126.089 135.185 127.007C135.715 127.925 136.279 128.523 136.878 128.8C137.467 129.061 138.056 129.021 138.645 128.681C139.234 128.341 139.563 127.851 139.632 127.21C139.709 126.543 139.482 125.75 138.952 124.832ZM144.084 115.841L147.072 114.116L147.308 137.986L144.321 139.711L144.084 115.841ZM158.743 125.391C159.653 126.968 159.946 128.415 159.622 129.734C159.315 131.042 158.512 132.072 157.213 132.822C156.572 133.192 155.919 133.419 155.252 133.504C154.595 133.606 153.956 133.559 153.335 133.364C152.714 133.168 152.115 132.832 151.54 132.356C150.972 131.852 150.464 131.211 150.014 130.431C149.094 128.838 148.792 127.395 149.109 126.104C149.433 124.785 150.244 123.751 151.543 123.001C152.842 122.251 154.135 122.07 155.422 122.459C156.716 122.82 157.823 123.798 158.743 125.391ZM156.275 126.816C155.745 125.898 155.177 125.314 154.57 125.064C153.971 124.786 153.377 124.817 152.788 125.157C152.199 125.497 151.875 125.996 151.816 126.654C151.747 127.294 151.978 128.073 152.508 128.991C153.038 129.909 153.602 130.507 154.201 130.785C154.79 131.045 155.379 131.005 155.968 130.665C156.557 130.325 156.886 129.835 156.955 129.195C157.032 128.527 156.805 127.734 156.275 126.816Z" fill="white"/>
</svg>
